Coordinates
version=1
nRows=10
nColumns=38
inDegrees=no

Units are S.I. units (second, meters, Newtons, ...)
If the header above contains a line with 'inDegrees', this indicates whether rotational values are in degrees (yes) or radians (no).

endheader
time	pelvis_tilt	pelvis_list	pelvis_rotation	pelvis_tx	pelvis_ty	pelvis_tz	hip_flexion_r	hip_adduction_r	hip_rotation_r	knee_angle_r	ankle_angle_r	subtalar_angle_r	mtp_angle_r	hip_flexion_l	hip_adduction_l	hip_rotation_l	knee_angle_l	ankle_angle_l	subtalar_angle_l	mtp_angle_l	lumbar_extension	lumbar_bending	lumbar_rotation	arm_flex_r	arm_add_r	arm_rot_r	elbow_flex_r	pro_sup_r	wrist_flex_r	wrist_dev_r	arm_flex_l	arm_add_l	arm_rot_l	elbow_flex_l	pro_sup_l	wrist_flex_l	wrist_dev_l
1.35	0.0807812	0.0162879	0.0209127	0.917114	1.09153	-0.329338	-0.248837	-0.00245767	-0.130072	-0.649286	-0.284675	0.049271	8.54464e-05	0.268505	0.0644442	-0.0250964	-0.234146	0.124962	0.0758117	8.74104e-05	-0.362457	-0.0480499	0.0742566	-0.118329	-0.388227	0.0621463	2.31404	1.9257	-0.0106657	-0.019569	-0.633312	-0.252431	0.00741645	2.08887	1.82416	-0.0111735	-0.00558791
1.35833	0.084323	0.0169654	0.0245316	0.917576	1.08808	-0.330318	-0.232206	-0.00748444	-0.131068	-0.715764	-0.265951	0.049271	8.54464e-05	0.265092	0.0658342	-0.0361627	-0.247495	0.114918	0.0758117	8.74104e-05	-0.365315	-0.0482696	0.0661555	-0.136405	-0.383384	0.0646359	2.30664	1.91769	-0.0106657	-0.019569	-0.618634	-0.25786	0.0133783	2.09099	1.81755	-0.0111735	-0.00558791
1.36667	0.089197	0.019202	0.0280112	0.917883	1.08403	-0.331374	-0.215225	-0.0144995	-0.131899	-0.784837	-0.246079	0.049271	8.54464e-05	0.261851	0.069259	-0.0457319	-0.268771	0.104369	0.0758117	8.74104e-05	-0.369976	-0.0498349	0.0565632	-0.153737	-0.378644	0.0669447	2.29639	1.91106	-0.0106657	-0.019569	-0.602338	-0.263665	0.0194245	2.09223	1.81054	-0.0111735	-0.00558791
1.375	0.0952845	0.023167	0.0312235	0.917991	1.07946	-0.332473	-0.198011	-0.0235264	-0.132258	-0.8554	-0.22623	0.049271	8.54464e-05	0.259238	0.0749474	-0.052995	-0.297949	0.0954672	0.0758117	8.74104e-05	-0.376375	-0.0530393	0.0454354	-0.170007	-0.37383	0.0691648	2.28296	1.90644	-0.0106657	-0.019569	-0.584462	-0.26985	0.0253417	2.09234	1.80327	-0.0111735	-0.00558791
1.38333	0.102426	0.0289547	0.034038	0.917862	1.07447	-0.333564	-0.180509	-0.0344569	-0.131779	-0.926503	-0.207177	0.049271	8.54464e-05	0.257644	0.0829749	-0.0575369	-0.334761	0.0906004	0.0758117	8.74104e-05	-0.384422	-0.058126	0.0327827	-0.184872	-0.368696	0.0713505	2.26595	1.90445	-0.0106657	-0.019569	-0.564946	-0.276458	0.0309831	2.09095	1.7958	-0.0111735	-0.00558791
1.39167	0.110465	0.0365453	0.036336	0.917476	1.06926	-0.33458	-0.162572	-0.0470255	-0.130111	-0.99731	-0.189263	0.049271	8.54464e-05	0.257205	0.0932079	-0.0593837	-0.378445	0.0918737	0.0758117	8.74104e-05	-0.394018	-0.0652336	0.0186913	-0.198011	-0.36294	0.073489	2.24484	1.90573	-0.0106657	-0.019569	-0.543636	-0.283557	0.036308	2.08756	1.78817	-0.0111735	-0.00558791
1.4	0.119285	0.0457439	0.0380259	0.916822	1.06406	-0.335449	-0.144026	-0.0607911	-0.126979	-1.06704	-0.172452	0.049271	8.54464e-05	0.257699	0.10526	-0.058976	-0.427595	0.100605	0.0758117	8.74104e-05	-0.405038	-0.0743317	0.00335113	-0.209198	-0.356231	0.0754693	2.21911	1.91088	-0.0106657	-0.019569	-0.520305	-0.291221	0.0414179	2.08157	1.78037	-0.0111735	-0.00558791
1.40833	0.128746	0.0561629	0.0390514	0.915899	1.05905	-0.336114	-0.124729	-0.075134	-0.122242	-1.13491	-0.156445	0.049271	8.54464e-05	0.258538	0.118482	-0.0570444	-0.480201	0.117022	0.0758117	8.74104e-05	-0.417318	-0.0851507	-0.0129191	-0.218366	-0.348266	0.0770628	2.18829	1.92034	-0.0106657	-0.019569	-0.494685	-0.299498	0.046574	2.07234	1.77246	-0.0111735	-0.00558791
1.41667	0.138676	0.0672328	0.0394051	0.914722	1.05432	-0.33655	-0.104561	-0.0892996	-0.115921	-1.20013	-0.140828	0.049271	8.54464e-05	0.25892	0.132012	-0.0544096	-0.53388	0.140287	0.0758117	8.74104e-05	-0.430599	-0.0971559	-0.0296695	-0.225653	-0.338837	0.0779295	2.15203	1.93434	-0.0106657	-0.019569	-0.466525	-0.308359	0.0521746	2.05923	1.76461	-0.0111735	-0.00558791
1.425	0.148832	0.078268	0.0391274	0.91333	1.04989	-0.336772	-0.0833905	-0.102486	-0.108204	-1.26189	-0.125226	0.049271	8.54464e-05	0.258041	0.144902	-0.0517826	-0.586227	0.168796	0.0758117	8.74104e-05	-0.444494	-0.109584	-0.0463609	-0.231395	-0.327888	0.0776626	2.11026	1.95274	-0.0106657	-0.019569	-0.435664	-0.317663	0.0586747	2.04176	1.75707	-0.0111735	-0.00558791
